<mxfile host="app.diagrams.net" modified="2023-12-05T19:17:53.545Z" agent="Mozilla/5.0 (Windows NT 10.0; Win64; x64) AppleWebKit/537.36 (KHTML, like Gecko) Chrome/119.0.0.0 Safari/537.36" etag="dhVCp1TmgslE2sadERyw" version="22.1.5" type="device">
  <diagram name="Page-1" id="Y8jS43IYcI53ZjIvbXR7">
    <mxGraphModel dx="1105" dy="596" grid="0" gridSize="10" guides="1" tooltips="1" connect="1" arrows="1" fold="1" page="1" pageScale="1" pageWidth="690" pageHeight="980" math="0" shadow="0">
      <root>
        <mxCell id="0" />
        <mxCell id="1" parent="0" />
        <mxCell id="O1R5YNAbS4BZm2_CRug4-10" style="edgeStyle=orthogonalEdgeStyle;rounded=0;orthogonalLoop=1;jettySize=auto;html=1;" edge="1" parent="1" source="O1R5YNAbS4BZm2_CRug4-1" target="O1R5YNAbS4BZm2_CRug4-2">
          <mxGeometry relative="1" as="geometry" />
        </mxCell>
        <mxCell id="O1R5YNAbS4BZm2_CRug4-1" value="User Interface" style="rounded=0;whiteSpace=wrap;html=1;" vertex="1" parent="1">
          <mxGeometry x="184" y="50" width="100" height="50" as="geometry" />
        </mxCell>
        <mxCell id="O1R5YNAbS4BZm2_CRug4-11" value="" style="edgeStyle=orthogonalEdgeStyle;rounded=0;orthogonalLoop=1;jettySize=auto;html=1;" edge="1" parent="1" source="O1R5YNAbS4BZm2_CRug4-2" target="O1R5YNAbS4BZm2_CRug4-3">
          <mxGeometry relative="1" as="geometry" />
        </mxCell>
        <mxCell id="O1R5YNAbS4BZm2_CRug4-2" value="User Action Module" style="rounded=0;whiteSpace=wrap;html=1;" vertex="1" parent="1">
          <mxGeometry x="184" y="145" width="100" height="50" as="geometry" />
        </mxCell>
        <mxCell id="O1R5YNAbS4BZm2_CRug4-12" value="" style="edgeStyle=orthogonalEdgeStyle;rounded=0;orthogonalLoop=1;jettySize=auto;html=1;" edge="1" parent="1" source="O1R5YNAbS4BZm2_CRug4-3" target="O1R5YNAbS4BZm2_CRug4-5">
          <mxGeometry relative="1" as="geometry" />
        </mxCell>
        <mxCell id="O1R5YNAbS4BZm2_CRug4-3" value="Authentication" style="rounded=0;whiteSpace=wrap;html=1;" vertex="1" parent="1">
          <mxGeometry x="184" y="240" width="100" height="50" as="geometry" />
        </mxCell>
        <mxCell id="O1R5YNAbS4BZm2_CRug4-4" value="User Database" style="rounded=0;whiteSpace=wrap;html=1;" vertex="1" parent="1">
          <mxGeometry x="19" y="330" width="100" height="50" as="geometry" />
        </mxCell>
        <mxCell id="O1R5YNAbS4BZm2_CRug4-13" value="" style="edgeStyle=orthogonalEdgeStyle;rounded=0;orthogonalLoop=1;jettySize=auto;html=1;" edge="1" parent="1" source="O1R5YNAbS4BZm2_CRug4-5" target="O1R5YNAbS4BZm2_CRug4-4">
          <mxGeometry relative="1" as="geometry" />
        </mxCell>
        <mxCell id="O1R5YNAbS4BZm2_CRug4-15" value="" style="edgeStyle=orthogonalEdgeStyle;rounded=0;orthogonalLoop=1;jettySize=auto;html=1;" edge="1" parent="1" source="O1R5YNAbS4BZm2_CRug4-5" target="O1R5YNAbS4BZm2_CRug4-8">
          <mxGeometry relative="1" as="geometry" />
        </mxCell>
        <mxCell id="O1R5YNAbS4BZm2_CRug4-5" value="Project Management Controller" style="rounded=0;whiteSpace=wrap;html=1;" vertex="1" parent="1">
          <mxGeometry x="184" y="330" width="100" height="50" as="geometry" />
        </mxCell>
        <mxCell id="O1R5YNAbS4BZm2_CRug4-16" value="" style="edgeStyle=orthogonalEdgeStyle;rounded=0;orthogonalLoop=1;jettySize=auto;html=1;" edge="1" parent="1" source="O1R5YNAbS4BZm2_CRug4-6" target="O1R5YNAbS4BZm2_CRug4-5">
          <mxGeometry relative="1" as="geometry" />
        </mxCell>
        <mxCell id="O1R5YNAbS4BZm2_CRug4-6" value="External Server/API" style="rounded=0;whiteSpace=wrap;html=1;" vertex="1" parent="1">
          <mxGeometry x="349" y="330" width="100" height="50" as="geometry" />
        </mxCell>
        <mxCell id="O1R5YNAbS4BZm2_CRug4-8" value="Project Database" style="rounded=0;whiteSpace=wrap;html=1;" vertex="1" parent="1">
          <mxGeometry x="184" y="430" width="100" height="50" as="geometry" />
        </mxCell>
        <mxCell id="O1R5YNAbS4BZm2_CRug4-9" value="&lt;div&gt;&lt;ul&gt;&lt;li&gt;User interactions flow from the User Interface to the User Action Module.&lt;/li&gt;&lt;li&gt;User-related data flows between the User Interface, User Action Module, Authentication, and the User Database.&lt;/li&gt;&lt;li&gt;Project-related data flows between the User Interface, User Action Module, Project Management Controller, and the Project Database.&lt;/li&gt;&lt;li&gt;The Authentication module validates user credentials.&lt;/li&gt;&lt;li&gt;The Project Management Controller processes actions related to projects and tasks.&lt;/li&gt;&lt;li&gt;Data may flow to and from external systems for integrations.&lt;/li&gt;&lt;/ul&gt;&lt;/div&gt;" style="rounded=0;whiteSpace=wrap;html=1;align=left;spacingRight=8;strokeColor=none;fillColor=none;" vertex="1" parent="1">
          <mxGeometry x="276" y="109" width="370" height="225" as="geometry" />
        </mxCell>
      </root>
    </mxGraphModel>
  </diagram>
</mxfile>
